<svg width="41" height="34" viewBox="0 0 41 34" fill="none" xmlns="http://www.w3.org/2000/svg">
<mask id="path-1-inside-1" fill="white">
<path fill-rule="evenodd" clip-rule="evenodd" d="M20.26 28.1879L23.3645 25.0833V25.0833V25.0833C26.2271 22.2206 26.2271 17.5793 23.3645 14.7167C20.741 12.0933 16.6238 11.874 13.7507 14.059C13.3111 14.3933 12.6846 14.3933 12.245 14.059C10.5721 12.7868 8.47757 12.3297 6.50165 12.6876C5.53283 9.32721 6.37236 5.55576 9.02024 2.90788C12.6591 -0.730953 18.4198 -0.954641 22.3195 2.23681C22.7469 2.58659 23.3744 2.58659 23.8018 2.23681C27.7015 -0.954638 33.4622 -0.730949 37.101 2.90788C40.9781 6.78499 40.9782 13.071 37.1012 16.9482V16.9482V16.9483L23.7679 30.2816C23.3773 30.6721 22.7442 30.6721 22.3536 30.2816L20.26 28.1879Z"/>
</mask>
<path d="M23.3645 25.0833L24.0716 25.7905L24.3645 25.4976V25.0833H23.3645ZM20.26 28.1879L19.5529 27.4808L18.8458 28.1879L19.5529 28.895L20.26 28.1879ZM23.3645 25.0833L22.6574 24.3762L22.3645 24.6691V25.0833H23.3645ZM13.7507 14.059L13.1454 13.263L13.1454 13.263L13.7507 14.059ZM12.245 14.059L12.8503 13.263L12.8503 13.263L12.245 14.059ZM6.50165 12.6876L5.54079 12.9646L5.79102 13.8325L6.67987 13.6716L6.50165 12.6876ZM9.02024 2.90788L8.31314 2.20077L8.31314 2.20077L9.02024 2.90788ZM22.3195 2.23681L21.6862 3.01069L21.6862 3.01069L22.3195 2.23681ZM23.8018 2.23681L24.4351 3.01069L24.4351 3.01069L23.8018 2.23681ZM37.101 2.90788L37.8081 2.20077L37.8081 2.20077L37.101 2.90788ZM37.1012 16.9482L36.3941 16.2411L36.1012 16.534V16.9482H37.1012ZM37.1012 16.9483L37.8083 17.6554L38.1012 17.3625V16.9483H37.1012ZM23.7679 30.2816L23.0608 29.5745L23.0608 29.5745L23.7679 30.2816ZM22.6574 24.3762L19.5529 27.4808L20.9671 28.895L24.0716 25.7905L22.6574 24.3762ZM22.3645 25.0833V25.0833H24.3645V25.0833H22.3645ZM22.3645 25.0833V25.0833H24.3645V25.0833H22.3645ZM22.6573 15.4238C25.1295 17.8959 25.1295 21.904 22.6574 24.3762L24.0717 25.7904C27.3248 22.5372 27.3247 17.2628 24.0716 14.0096L22.6573 15.4238ZM14.356 14.855C16.8364 12.9687 20.3924 13.1588 22.6573 15.4238L24.0716 14.0096C21.0897 11.0277 16.4112 10.7794 13.1454 13.263L14.356 14.855ZM11.6396 14.855C12.4369 15.4613 13.5587 15.4613 14.356 14.855L13.1454 13.263C13.0635 13.3253 12.9322 13.3253 12.8503 13.263L11.6396 14.855ZM6.67987 13.6716C8.3889 13.362 10.1973 13.7581 11.6396 14.855L12.8503 13.263C10.9469 11.8156 8.56624 11.2974 6.32343 11.7036L6.67987 13.6716ZM7.46251 12.4105C6.59046 9.38582 7.34711 5.99522 9.72735 3.61498L8.31314 2.20077C5.3976 5.1163 4.4752 9.2686 5.54079 12.9646L7.46251 12.4105ZM9.72735 3.61498C12.9992 0.343101 18.1801 0.141376 21.6862 3.01069L22.9528 1.46293C18.6595 -2.05066 12.3189 -1.80501 8.31314 2.20077L9.72735 3.61498ZM21.6862 3.01069C22.482 3.66196 23.6393 3.66196 24.4351 3.01069L23.1684 1.46293C23.142 1.48454 23.1049 1.49914 23.0606 1.49914C23.0164 1.49914 22.9792 1.48454 22.9528 1.46293L21.6862 3.01069ZM24.4351 3.01069C27.9412 0.141379 33.122 0.343104 36.3939 3.61499L37.8081 2.20077C33.8024 -1.805 27.4618 -2.05066 23.1684 1.46293L24.4351 3.01069ZM36.3939 3.61499C39.8805 7.10158 39.8806 12.7544 36.3941 16.2411L37.8083 17.6553C42.0758 13.3876 42.0758 6.4684 37.8081 2.20077L36.3939 3.61499ZM36.1012 16.9482V16.9482H38.1012V16.9482H36.1012ZM36.1012 16.9482V16.9483H38.1012V16.9482H36.1012ZM36.3941 16.2411L23.0608 29.5745L24.475 30.9887L37.8083 17.6554L36.3941 16.2411ZM23.0608 29.5745H23.0608L21.6465 30.9887C22.4276 31.7698 23.6939 31.7698 24.475 30.9887L23.0608 29.5745ZM23.0608 29.5745L20.9671 27.4808L19.5529 28.895L21.6465 30.9887L23.0608 29.5745Z" fill="black" mask="url(#path-1-inside-1)"/>
<mask id="path-3-inside-2" fill="white">
<path fill-rule="evenodd" clip-rule="evenodd" d="M4.2228 24.6873C4.21487 24.6794 4.20695 24.6715 4.19905 24.6636C1.87998 22.3446 1.87998 18.5846 4.19905 16.2656C6.27819 14.1864 9.51549 13.9713 11.8343 15.6202C12.2844 15.9403 12.9099 15.9403 13.36 15.6202C15.6788 13.9713 18.9161 14.1864 20.9952 16.2656C23.3143 18.5846 23.3143 22.3445 20.9953 24.6636C20.9953 24.6636 20.9953 24.6636 20.9953 24.6636V24.6636C20.9953 24.6636 20.9953 24.6636 20.9953 24.6636L13.3043 32.3546C12.9138 32.7451 12.2806 32.7451 11.8901 32.3546L4.2228 24.6873Z"/>
</mask>
<path d="M4.2228 24.6873L4.92992 23.9802L4.92599 23.9763L4.2228 24.6873ZM20.9953 24.6636L20.2882 23.9565L20.9953 24.6636ZM11.8343 15.6202L11.2547 16.4352L11.8343 15.6202ZM13.36 15.6202L13.9395 16.4352L13.36 15.6202ZM4.92599 23.9763C4.91936 23.9697 4.91275 23.9631 4.90615 23.9565L3.49194 25.3708C3.50114 25.38 3.51037 25.3891 3.51961 25.3983L4.92599 23.9763ZM4.90615 23.9565C2.97761 22.028 2.97761 18.9012 4.90615 16.9727L3.49194 15.5584C0.782346 18.268 0.782346 22.6612 3.49194 25.3708L4.90615 23.9565ZM4.90615 16.9727C6.63447 15.2443 9.32706 15.0644 11.2547 16.4352L12.4138 14.8053C9.70392 12.8782 5.92191 13.1285 3.49194 15.5584L4.90615 16.9727ZM13.9395 16.4352C15.8672 15.0644 18.5598 15.2443 20.2881 16.9727L21.7023 15.5584C19.2724 13.1285 15.4903 12.8782 12.7805 14.8053L13.9395 16.4352ZM20.2881 16.9727C22.2166 18.9012 22.2167 22.0279 20.2882 23.9565L21.7024 25.3706C24.4119 22.661 24.4119 18.268 21.7023 15.5584L20.2881 16.9727ZM20.2882 23.9565L12.5972 31.6475L14.0114 33.0617L21.7024 25.3707L20.2882 23.9565ZM12.5972 31.6475L4.92991 23.9802L3.51569 25.3944L11.183 33.0617L12.5972 31.6475ZM12.5972 31.6475L12.5972 31.6475L11.183 33.0617C11.9641 33.8427 13.2304 33.8427 14.0114 33.0617L12.5972 31.6475ZM20.2882 25.3707C19.8977 24.9802 19.8977 24.347 20.2882 23.9565L21.7024 25.3707C22.0929 24.9802 22.0929 24.347 21.7024 23.9565L20.2882 25.3707ZM20.2882 23.9565C19.8936 24.3511 19.9017 24.9842 20.2882 25.3707L21.7024 23.9565C22.0889 24.3429 22.097 24.9761 21.7024 25.3706L20.2882 23.9565ZM11.2547 16.4352C12.0518 17.002 13.1425 17.002 13.9395 16.4352L12.7805 14.8053C12.6773 14.8786 12.5169 14.8786 12.4138 14.8053L11.2547 16.4352Z" fill="black" mask="url(#path-3-inside-2)"/>
</svg>
