<svg width="65" height="65" viewBox="0 0 65 65" fill="none" xmlns="http://www.w3.org/2000/svg">
<ellipse cx="32.5" cy="32.0779" rx="32.5" ry="32.0779" fill="#F9F9F9"/>
<path fill-rule="evenodd" clip-rule="evenodd" d="M20.3432 34.6937C20.3322 34.6828 20.3212 34.6718 20.3102 34.6609C17.0188 31.3695 17.0188 26.0331 20.3102 22.7417C23.3627 19.6892 28.1742 19.4677 31.482 22.0772C31.9156 22.4192 32.5429 22.4192 32.9765 22.0772C36.2843 19.4677 41.0958 19.6892 44.1483 22.7417C47.4397 26.033 47.4397 31.3693 44.1485 34.6607C44.1485 34.6607 44.1485 34.6607 44.1485 34.6607C44.1485 34.6607 44.1485 34.6607 44.1485 34.6608L32.9365 45.8727C32.546 46.2633 31.9128 46.2633 31.5223 45.8727L20.3432 34.6937Z" fill="#FF8484"/>
</svg>
