<svg width="41" height="35" viewBox="0 0 41 35" fill="none" xmlns="http://www.w3.org/2000/svg">
<path d="M14.4767 4.11268C14.4767 4.11268 11.4651 2.07504 8.30468 2.54259C5.55471 2.94941 3.76269 4.25879 2.60877 6.75079C1.60871 8.91052 2.00987 10.53 2.60877 12.8293C3.20767 15.1286 6.40613 18.4403 6.40613 18.4403L20.6458 32C20.6458 32 36.4168 16.5411 37.7335 14.6996C39.0502 12.8581 39.1241 11.0301 38.9055 9C38.6948 7.04431 38.1293 6.33376 36.7842 4.88048C35.2751 3.25007 33.7593 2.50775 31.563 2.07504C29.1898 1.60747 25.8672 3.47775 25.8672 3.47775L13.5259 14.6996M13.5259 14.6996H22.6512M13.5259 14.6996V7.28169" stroke="url(#paint0_linear)" stroke-width="4"/>
<defs>
<linearGradient id="paint0_linear" x1="20.5" y1="2" x2="20.5" y2="32" gradientUnits="userSpaceOnUse">
<stop offset="0.15625"/>
<stop offset="0.78125" stop-color="#C49490"/>
</linearGradient>
</defs>
</svg>
