<svg width="26" height="33" viewBox="0 0 26 33" fill="none" xmlns="http://www.w3.org/2000/svg">
<path d="M20.5 7.5C20.5 11.3361 17.173 14.5 13 14.5C8.82698 14.5 5.5 11.3361 5.5 7.5C5.5 3.66391 8.82698 0.5 13 0.5C17.173 0.5 20.5 3.66391 20.5 7.5Z" stroke="black"/>
<mask id="path-2-inside-1" fill="white">
<path fill-rule="evenodd" clip-rule="evenodd" d="M26 32.0914C24.8026 22.2109 19.4374 14.7581 13 14.7581C6.56259 14.7581 1.19744 22.2109 0 32.0914H26Z"/>
</mask>
<path d="M26 32.0914V33.0914H27.1285L26.9927 31.9711L26 32.0914ZM0 32.0914L-0.992736 31.9711L-1.12851 33.0914H0V32.0914ZM26.9927 31.9711C26.3775 26.8947 24.6869 22.3882 22.2685 19.1242C19.853 15.8642 16.6356 13.7581 13 13.7581V15.7581C15.8018 15.7581 18.4857 17.3783 20.6615 20.3149C22.8344 23.2474 24.425 27.4076 25.0073 32.2117L26.9927 31.9711ZM13 13.7581C9.36443 13.7581 6.147 15.8642 3.73153 19.1242C1.31312 22.3882 -0.377516 26.8947 -0.992736 31.9711L0.992736 32.2117C1.57495 27.4076 3.16561 23.2474 5.33849 20.3149C7.51431 17.3783 10.1982 15.7581 13 15.7581V13.7581ZM0 33.0914H26V31.0914H0V33.0914Z" fill="black" mask="url(#path-2-inside-1)"/>
</svg>
